HIERARCHY
ROOT Hips
{
  OFFSET 0 0 0
  CHANNELS 6 Xposition Yposition Zposition Zrotation Yrotation Xrotation
  JOINT LeftThigh
  {
    OFFSET 8.409438 0 -5.917753
    CHANNELS 3 Zrotation Yrotation Xrotation
    JOINT LeftLeg
    {
      OFFSET 0 0 -42.358652
      CHANNELS 3 Zrotation Yrotation Xrotation
      JOINT LeftFoot
      {
        OFFSET 0 0 -39.357303
        CHANNELS 3 Zrotation Yrotation Xrotation
      }
    }
  }
  JOINT RightThigh
  {
    OFFSET -8.409438 0 -5.917753
    CHANNELS 3 Zrotation Yrotation Xrotation
    JOINT RightLeg
    {
      OFFSET 0 0 -42.358652
      CHANNELS 3 Zrotation Yrotation Xrotation
      JOINT RightFoot
      {
        OFFSET 0 0 -39.357303
        CHANNELS 3 Zrotation Yrotation Xrotation
      }
    }
  }
  JOINT SpineLow
  {
    OFFSET 0 0 4.719101
    CHANNELS 3 Zrotation Yrotation Xrotation
    JOINT SpineMid
    {
      OFFSET 0 0 12.899191
      CHANNELS 3 Zrotation Yrotation Xrotation
      JOINT Chest
      {
        OFFSET 0 0 12.899191
        CHANNELS 3 Zrotation Yrotation Xrotation
        JOINT LeftShoulder
        {
          OFFSET 7.550562 1.41573 9.438202
          CHANNELS 3 Zrotation Yrotation Xrotation
          JOINT LeftArm
          {
            OFFSET 9.155056 0 4.247191
            CHANNELS 3 Zrotation Yrotation Xrotation
            JOINT LeftForearm
            {
              OFFSET 0 0 25.771955
              CHANNELS 3 Zrotation Yrotation Xrotation
              JOINT LeftHand
              {
                OFFSET 0 0 25.197169
                CHANNELS 3 Zrotation Yrotation Xrotation
              }
            }
          }
        }
        JOINT RightShoulder
        {
          OFFSET -7.550562 1.41573 9.438202
          CHANNELS 3 Zrotation Yrotation Xrotation
          JOINT RightArm
          {
            OFFSET -9.155056 0 4.247191
            CHANNELS 3 Zrotation Yrotation Xrotation
            JOINT RightForearm
            {
              OFFSET 0 0 -25.771955
              CHANNELS 3 Zrotation Yrotation Xrotation
              JOINT RightHand
              {
                OFFSET 0 0 -25.197169
                CHANNELS 3 Zrotation Yrotation Xrotation
              }
            }
          }
        }
        JOINT Neck
        {
          OFFSET 0 0 15.101124
          CHANNELS 3 Zrotation Yrotation Xrotation
          JOINT Head
          {
            OFFSET 0 0 11.325843
            CHANNELS 3 Zrotation Yrotation Xrotation
            End Site
            {
              OFFSET 0 0 14.157303
            }
          }
        }
      }
    }
  }
}
MOTION
Frames: 10
Frame Time: 0.0
0.0  93.25843  0.0  -0.981275  -13.136984  -89.941161  11.331225  -14.300744  1.558453  3.967656  -1.826611  6.612951  3.445952  0.210894  0.488537  1.596224  3.822444  -7.82234  -1.343325  6.212387  7.108949  2.128395  1.04624  -0.423552  0.981283  0.239624  0.0673  2.682985  0.652133  0.193649  2.682985  0.652133  0.193649  -27.380519  23.345634  -3.170719  -164.166913  50.0889  -116.477992  -36.994588  36.426991  74.115968  72.115792  -14.80095  23.30033  8.744128  -13.456251  24.034595  110.248886  55.373234  42.884764  -33.388599  -10.880276  -102.330302  68.404319  -6.550523  -23.081476  -1.699614  -1.291728  7.427966  -1.259174  -0.989636  5.567198  
0.0  93.25843  0.0  -1.002225  -12.34058  -89.88355  10.573729  -14.430243  1.164167  3.926308  -1.643565  7.156813  3.425828  0.169132  0.507157  1.037644  3.913751  -7.737363  -1.487642  6.150739  7.159152  2.126732  1.059382  -0.439786  0.908938  0.278591  0.043802  2.485096  0.759731  0.130182  2.485096  0.759731  0.130182  -27.424553  23.524843  -2.813838  -164.549998  49.127998  -116.835806  -38.873884  37.649502  72.161732  72.101086  -15.012173  24.31646  8.425579  -13.264087  24.107403  109.787133  54.7028  42.132544  -33.639271  -10.874673  -102.195309  67.106219  -7.274789  -22.653096  -1.820536  -1.440063  7.410574  -1.348099  -1.102326  5.553407  
0.0  93.25843  0.0  -1.079353  -11.500287  -89.821851  10.398452  -14.625171  0.878344  3.482252  -1.480287  7.544207  3.40519  0.139418  0.512862  0.556338  3.931404  -7.645971  -2.224596  6.066185  7.038561  2.132892  1.103786  -0.466827  0.818094  0.300507  0.001776  2.236306  0.821238  0.015019  2.236306  0.821238  0.015019  -27.198565  23.901497  -2.331844  -163.865513  47.905875  -116.884585  -40.193065  39.367572  70.269721  71.840592  -15.099078  25.612791  8.140867  -12.957756  24.317214  109.008927  54.154035  40.864586  -33.601662  -10.981071  -102.031555  65.92482  -7.998946  -22.059362  -1.952938  -1.569944  7.442026  -1.445743  -1.201465  5.576221  
0.0  93.25843  0.0  -1.100226  -10.323153  -89.680583  9.746082  -14.707883  0.258949  3.113738  -1.318862  8.122123  3.399635  0.092605  0.530949  0.089395  4.062652  -7.552634  -2.468504  5.966121  7.078195  2.103617  1.075119  -0.475807  0.70456  0.338129  -0.050572  1.925252  0.925625  -0.128378  1.925252  0.925625  -0.128378  -27.109419  24.212961  -1.818807  -163.985944  46.856174  -116.962165  -42.235302  40.50468  68.073606  71.742181  -15.076381  27.034566  7.793126  -12.609807  24.598482  108.259621  53.566198  39.587291  -33.600536  -11.307562  -102.153749  64.943227  -8.883275  -21.242883  -2.128905  -1.764978  7.485055  -1.575209  -1.350066  5.60728  
0.0  93.25843  0.0  -1.232334  -9.114905  -89.606987  9.424798  -14.992637  -0.290044  2.756363  -1.127879  8.809416  3.322705  0.036537  0.504706  -0.336438  4.055676  -7.373894  -3.087511  5.867072  7.000623  2.39644  1.128028  -0.394456  0.568336  0.343114  -0.09069  1.552297  0.939939  -0.239828  1.552297  0.939939  -0.239829  -26.549622  24.726501  -1.29626  -164.172672  45.856025  -116.996735  -44.091485  41.431499  65.894038  71.258393  -14.934783  28.488601  7.489465  -12.130906  24.907111  107.541124  52.972549  38.108719  -33.443424  -11.69175  -102.390439  63.908783  -9.836339  -20.222569  -2.26478  -1.929247  7.492119  -1.675063  -1.474985  5.611499  
0.0  93.25843  0.0  -1.272554  -7.524076  -89.467965  8.820212  -15.21825  -1.060125  2.245849  -0.856594  9.480661  3.214913  0.006224  0.502347  -0.87306  4.186065  -7.20222  -3.500807  5.757278  7.030953  2.213294  1.134751  -0.385138  0.401814  0.382042  -0.127282  1.096387  1.046353  -0.34158  1.096387  1.046353  -0.34158  -26.39618  24.993933  -0.862639  -164.218755  44.817651  -117.022064  -45.112451  41.772035  64.467595  70.091924  -14.750437  29.181174  7.356402  -11.829294  25.243819  106.597682  52.553155  36.587429  -32.847613  -12.308251  -103.346613  62.733525  -11.10387  -18.599176  -2.4534  -2.180611  7.44963  -1.813554  -1.665686  5.577898  
0.0  93.25843  0.0  -1.428736  -6.133081  -89.443277  8.848186  -15.60867  -1.667505  1.700245  -0.588832  10.197994  2.964494  -0.009204  0.412489  -1.133395  4.156603  -6.903104  -4.104459  5.709702  7.054446  2.164262  1.18199  -0.36243  0.272966  0.393332  -0.136571  0.743962  1.076655  -0.368889  0.743962  1.076655  -0.368889  -26.011783  25.336099  -0.453717  -164.668673  43.873327  -117.174725  -43.269555  40.621149  65.162751  67.024149  -15.01123  28.103635  7.030846  -11.516262  25.500622  105.958888  52.030543  35.183242  -31.927821  -13.007462  -103.831882  61.162464  -11.588112  -17.006628  -2.741782  -2.392381  7.351936  -2.02759  -1.827621  5.502547  
0.0  93.25843  0.0  -1.503986  -4.204255  -89.27138  8.335167  -15.901859  -2.598462  0.913035  -0.264211  10.825207  2.821088  -0.023202  0.41644  -1.724241  4.246606  -6.712323  -4.952084  5.668857  7.06724  2.031007  1.222901  -0.351594  0.070025  0.412311  -0.178781  0.188374  1.12752  -0.48753  0.188374  1.12752  -0.48753  -25.822686  25.652747  -0.055159  -165.271656  42.998746  -117.506358  -42.119575  40.071678  65.669171  64.802743  -15.074257  26.948906  7.08648  -11.306953  26.026604  104.949795  51.857317  33.737874  -31.143135  -14.38826  -104.458975  59.920811  -12.37302  -15.73278  -3.042212  -2.605293  7.347479  -2.250309  -1.990938  5.496847  
0.0  93.25843  0.0  -1.63858  -2.321284  -89.195464  8.390763  -16.234654  -3.283565  -0.229892  0.076915  11.244943  2.72946  -0.06458  0.397613  -2.142899  4.242621  -6.389078  -6.091103  5.610595  7.011291  1.711733  1.325634  -0.399271  -0.101964  0.41946  -0.205802  -0.282302  1.145672  -0.564358  -0.282302  1.145672  -0.564358  -25.590227  25.987714  0.346657  -166.736547  42.506564  -117.981292  -44.310737  39.1299  64.527582  63.383948  -14.007222  27.58314  7.110672  -11.173454  26.505775  102.292027  52.564742  31.397053  -28.924855  -16.086498  -105.35061  58.603489  -13.01173  -14.450458  -3.52691  -2.798643  7.372391  -2.611322  -2.141973  5.512252  
0.0  93.25843  0.0  -1.757394  -0.147746  -89.070607  8.002125  -16.488764  -4.158393  -1.253667  0.350858  11.703994  2.617149  -0.101267  0.382799  -2.771198  4.286728  -6.114921  -6.992678  5.570596  7.000556  1.615116  1.336951  -0.360355  -0.304387  0.421802  -0.242928  -0.836316  1.149863  -0.669379  -0.836316  1.149863  -0.669379  -25.527111  26.319952  0.696417  -167.863601  41.893405  -118.451341  -46.334612  39.583761  62.266459  63.289919  -14.062601  28.483854  7.215684  -11.114733  26.943736  101.408718  52.330907  30.009937  -28.282804  -16.540338  -105.355276  56.696366  -12.981095  -13.13426  -4.093337  -2.993034  7.463448  -3.03326  -2.29528  5.576552  
